<svg xmlns="http://www.w3.org/2000/svg" viewBox="0 0 2458.13 535.83"><defs><style>.cls-1,.cls-2{fill:#fff;}.cls-1{stroke:#77bde9;stroke-miterlimit:10;}</style></defs><g id="Capa_2" data-name="Capa 2"><path class="cls-1" d="M201.52,194.7l4.36,371.84-141,1.65L58.79,46.56,242.47,44.4Q363.29,43,432.41,102.56,514.51,173.83,516,297.65q1.38,118.47-67.18,194.18t-177.93,77q-12.86.15-42-1L227,414.55l22.57-.26q123.25-1.46,121.93-115-1.26-106.62-122.43-105.19Z" transform="translate(-58.29 -33.52)"/><path class="cls-1" d="M834.41,240.4l1.37,116.17-92,1.08q-18.75.23-26.49,6.43t-7.57,20.73q.19,16.43,8.24,21.5t32.7,4.77L845.43,410l1.75,149-110.76,1.3q-78.12.91-119.92-39.68T573.79,402.46L571.39,198q-.89-74.9,37.7-116.63t109.4-42.56l122.57-1.44,1.76,149.8-89.93,1.06q-36.46.44-36.15,26.41.18,15.3,8.93,21.11t31,5.56Z" transform="translate(-58.29 -33.52)"/><path class="cls-2" d="M1161.28,208.18c0,95.42-44.86,175.24-135,175.24-88.56,0-131.36-79.31-131.36-174.78,0-97.08,46.94-175.12,135.31-175.12C1113.17,33.52,1161.28,107.26,1161.28,208.18Zm-186.84-1c0,61.93,16.06,105,54.23,105,40.11,0,53.32-45.73,53.32-103.22,0-61.54-14-104.24-54.34-104.24C990.17,104.74,974.44,144.38,974.44,207.17Z" transform="translate(-58.29 -33.52)"/><path class="cls-2" d="M1264.15,311.53l-15.25,65.61h-75.15L1257,39.79h99.87l86.5,337.35h-80.57l-16-65.61Zm69.09-73.26c-12.37-53-22.49-100.13-28.45-133h-1.06c-6.1,36.35-16.16,84.49-26.83,133Z" transform="translate(-58.29 -33.52)"/><path class="cls-2" d="M1614.09,377.14l-44.28-109.83H1569l-45.14,109.83h-82.36L1523.46,209,1443.29,39.79h89.19L1573.56,144h1.06l42.32-104.18H1698L1618,198.94l85,178.2Z" transform="translate(-58.29 -33.52)"/><path class="cls-2" d="M1793.61,311.53l-15.24,65.61h-75.15l83.21-337.35h99.87l86.49,337.35h-80.56l-16-65.61Zm69.1-73.26c-12.37-53-22.5-100.13-28.46-133h-1c-6.1,36.35-16.16,84.49-26.84,133Z" transform="translate(-58.29 -33.52)"/><path class="cls-2" d="M2235,266.18c-9.65,70.53-50,117.24-122.3,117.24-86.23,0-127.89-74.58-127.89-172.48,0-95.5,41.17-177.42,131.62-177.42,77.37,0,112.61,57.64,117.78,116h-76.56c-3.52-24.37-14.5-46.57-43-46.57-37.5,0-50.29,45.61-50.29,104.51,0,53.48,10.65,106.3,51.15,106.3,30.68,0,39.25-28.55,42.54-47.61Z" transform="translate(-58.29 -33.52)"/><path class="cls-2" d="M2337.23,311.53,2322,377.14h-75.15l83.21-337.35h99.87l86.5,337.35h-80.57l-16-65.61Zm69.1-73.26c-12.37-53-22.5-100.13-28.46-133h-1c-6.1,36.35-16.16,84.49-26.84,133Z" transform="translate(-58.29 -33.52)"/><path class="cls-2" d="M1014.58,407.38v121c0,9.7,0,19.53.21,29.28H985.4c-.62-3.2-1.2-8.7-1.39-11.13-5.34,8.39-14.84,13.6-31.34,13.6-27.92,0-45.68-21.64-45.68-54.86,0-32.78,18.88-56.6,50.15-56.6,15.89,0,24.42,5.4,26.87,10.18V407.38Zm-76.19,97.06c0,20.77,8.38,32,23.35,32,21,0,23.45-16.91,23.45-32.22,0-18.21-2.67-32-22.66-32C946.48,472.24,938.39,484.33,938.39,504.44Z" transform="translate(-58.29 -33.52)"/><path class="cls-2" d="M1066,510.65C1066,524,1073,537,1088.17,537c12.73,0,16.37-4.93,19.27-11.38H1138c-3.92,13-16,34.46-50.67,34.46-36.37,0-52.15-26.24-52.15-54.19,0-33.41,17.78-57.27,53.24-57.27,37.93,0,50.82,26.46,50.82,53.05a63.25,63.25,0,0,1-.4,9Zm42.65-18.11c-.22-12.4-5.35-22.84-20.25-22.84-14.65,0-20.54,9.75-21.76,22.84Z" transform="translate(-58.29 -33.52)"/><path class="cls-2" d="M1264.74,504.14c0,32.23-20,55.94-55,55.94-34.25,0-54.23-23.57-54.23-55.37,0-32.87,20.61-56.09,55.67-56.09C1243.72,448.62,1264.74,470.74,1264.74,504.14Zm-78.18.21c0,20.5,9.15,32.65,23.88,32.65,15,0,23.28-12.16,23.28-32.47,0-22.29-8.48-32.84-23.71-32.84C1195.83,471.69,1186.56,481.82,1186.56,504.35Z" transform="translate(-58.29 -33.52)"/><path class="cls-2" d="M1376.67,530.08c0,10.15.86,25,1.5,27.53H1349c-.85-2.11-1.49-7.73-1.54-10.41-4,6-11.52,12.88-31.05,12.88-26.62,0-37.85-16.89-37.85-33.41,0-24.27,20.2-35.46,52.57-35.46h15.76V484.7c0-7.57-2.82-15-17-15-12.91,0-15.73,5.29-17.14,13h-29.07c1.65-18.93,13.79-34.25,47.36-34.06,29.58.18,45.67,11.32,45.67,36.68Zm-29.79-21h-12.46c-18.42,0-25.25,5.43-25.25,15.7,0,7.71,4.9,14.2,15.89,14.2,19.43,0,21.82-13,21.82-27.1Z" transform="translate(-58.29 -33.52)"/><path class="cls-2" d="M1424.69,451.09c11.51,20.05,16.18,27.93,19.51,33.38h.21c3.81-6.45,10.53-18.19,19.51-33.38h33.94l-35.8,50.7,35.69,55.82h-34.58c-9.92-18-16.13-29.69-19.37-35.81h-.21c-2.93,5.61-10.46,19.42-19.51,35.81h-33.4l34.19-51.91-34-54.61Z" transform="translate(-58.29 -33.52)"/><path class="cls-2" d="M1604.08,530.08c0,10.15.86,25,1.5,27.53h-29.21c-.86-2.11-1.5-7.73-1.55-10.41-4,6-11.51,12.88-31,12.88-26.62,0-37.86-16.89-37.86-33.41,0-24.27,20.2-35.46,52.58-35.46h15.76V484.7c0-7.57-2.83-15-17-15-12.91,0-15.74,5.29-17.14,13H1511c1.66-18.93,13.8-34.25,47.37-34.06,29.58.18,45.67,11.32,45.67,36.68Zm-29.79-21h-12.46c-18.42,0-25.25,5.43-25.25,15.7,0,7.71,4.9,14.2,15.89,14.2,19.43,0,21.82-13,21.82-27.1Z" transform="translate(-58.29 -33.52)"/><path class="cls-2" d="M1726.71,523.19c-3.8,17.75-16.74,36.89-49.65,36.89-34.36,0-52-23-52-55,0-31.45,19.9-56.5,53.51-56.5,37.24,0,47.58,25.76,48.18,37.81h-29.84c-1.89-8.67-7-14.74-18.93-14.74-14,0-21.89,11.82-21.89,32.48,0,22.67,8.38,33,21.76,33,10.51,0,16.14-6,18.87-14Z" transform="translate(-58.29 -33.52)"/><path class="cls-2" d="M1837.68,530.08c0,10.15.85,25,1.49,27.53H1810c-.85-2.11-1.49-7.73-1.54-10.41-4,6-11.51,12.88-31,12.88-26.63,0-37.86-16.89-37.86-33.41,0-24.27,20.2-35.46,52.57-35.46h15.76V484.7c0-7.57-2.82-15-17-15-12.91,0-15.73,5.29-17.14,13h-29.07c1.66-18.93,13.79-34.25,47.36-34.06,29.58.18,45.68,11.32,45.68,36.68Zm-29.8-21h-12.46c-18.42,0-25.25,5.43-25.25,15.7,0,7.71,4.91,14.2,15.89,14.2,19.43,0,21.82-13,21.82-27.1Z" transform="translate(-58.29 -33.52)"/><path class="cls-2" d="M1865,557.61V521.46h32.82v36.15Z" transform="translate(-58.29 -33.52)"/><path class="cls-2" d="M2025.25,504.14c0,32.23-20,55.94-55,55.94-34.24,0-54.23-23.57-54.23-55.37,0-32.87,20.61-56.09,55.67-56.09C2004.23,448.62,2025.25,470.74,2025.25,504.14Zm-78.17.21c0,20.5,9.14,32.65,23.87,32.65,15,0,23.28-12.16,23.28-32.47,0-22.29-8.48-32.84-23.71-32.84C1956.34,471.69,1947.08,481.82,1947.08,504.35Z" transform="translate(-58.29 -33.52)"/><path class="cls-2" d="M2046.43,477.92c0-9.05,0-19-.21-26.83h29.61c.61,2.74,1,10.14,1.18,13.57,3.75-6.69,12.69-16,32-16,22.18,0,36.59,14.45,36.59,41.22v67.77h-30.57V493.12c0-12-4.14-20.65-17.63-20.65-13,0-20.42,7-20.42,25.77v59.37h-30.58Z" transform="translate(-58.29 -33.52)"/><path class="cls-2" d="M2172.75,557.61V407.38h30.57V557.61Z" transform="translate(-58.29 -33.52)"/><path class="cls-2" d="M2230.77,407.38h30.58v26.31h-30.58Zm0,43.71h30.58V557.61h-30.58Z" transform="translate(-58.29 -33.52)"/><path class="cls-2" d="M2289,477.92c0-9.05,0-19-.21-26.83h29.61c.61,2.74,1,10.14,1.18,13.57,3.75-6.69,12.69-16,32-16,22.18,0,36.59,14.45,36.59,41.22v67.77h-30.57V493.12c0-12-4.14-20.65-17.63-20.65-13,0-20.42,7-20.42,25.77v59.37H2289Z" transform="translate(-58.29 -33.52)"/><path class="cls-2" d="M2439.62,510.65c0,13.33,6.94,26.35,22.16,26.35,12.73,0,16.37-4.93,19.27-11.38h30.6c-3.92,13-16,34.46-50.67,34.46-36.37,0-52.15-26.24-52.15-54.19,0-33.41,17.78-57.27,53.24-57.27,37.93,0,50.82,26.46,50.82,53.05a63.25,63.25,0,0,1-.4,9Zm42.65-18.11c-.22-12.4-5.35-22.84-20.25-22.84-14.65,0-20.54,9.75-21.76,22.84Z" transform="translate(-58.29 -33.52)"/></g></svg>